<svg width="95" height="32" viewBox="0 0 95 32" fill="none" xmlns="http://www.w3.org/2000/svg">
<g clip-path="url(#clip0)">
<path d="M14.4196 7.30087H18.4548V24.4207H14.4903L14.2844 21.9211C13.3194 23.9351 10.6611 24.9064 8.76488 24.9436C3.72477 24.9776 0 21.85 0 15.8453C0 9.94278 3.89687 6.8523 8.8663 6.88633C11.1436 6.88633 13.3164 7.96289 14.2813 9.66436L14.4196 7.30087ZM4.20727 15.8453C4.20727 19.1091 6.45073 21.0549 9.24431 21.0549C15.8671 21.0549 15.8671 10.6729 9.24431 10.6729C6.45073 10.6698 4.20727 12.5785 4.20727 15.8453Z" fill="white"/>
<path d="M45.1827 2.47488C45.1827 5.77263 40.2163 5.77263 40.2163 2.47488C40.2163 -0.825976 45.1827 -0.825976 45.1827 2.47488Z" fill="#57BF77"/>
<path d="M44.8018 7.23279H40.5945V24.4207H44.8018V7.23279Z" fill="white"/>
<path d="M52.0824 0.148499V24.4207H47.9089V0.148499H52.0824Z" fill="white"/>
<path d="M59.6731 2.47488C59.6731 5.77263 54.7068 5.77263 54.7068 2.47488C54.7068 -0.825976 59.6731 -0.825976 59.6731 2.47488Z" fill="#57BF77"/>
<path d="M59.292 7.23279H55.0847V24.4207H59.292V7.23279Z" fill="white"/>
<path d="M75.5771 7.30084V9.31476L67.7465 20.2537H75.6478V24.4207H61.3296V22.6512L69.4706 11.1554H61.9504V7.30084H75.5771Z" fill="white"/>
<path d="M90.9616 7.30087H94.9968V24.4207H91.0293L90.8233 21.9211C89.8583 23.9351 87.2 24.9064 85.3038 24.9436C80.2668 24.9776 76.542 21.8531 76.542 15.8453C76.542 9.94278 80.4389 6.8523 85.4083 6.88633C87.6856 6.88633 89.8583 7.96289 90.8233 9.66436L90.9616 7.30087ZM80.7523 15.8453C80.7523 19.1091 82.9958 21.0549 85.7894 21.0549C92.4122 21.0549 92.4122 10.6729 85.7894 10.6729C82.9927 10.6698 80.7523 12.5785 80.7523 15.8453Z" fill="white"/>
<path d="M37.0356 12.1176C36.759 11.4772 36.384 10.8647 35.8769 10.2862L37.7731 7.8546L34.6692 5.4942L32.9789 7.64733C31.8049 6.84919 30.425 6.67595 29.082 6.67595C24.3216 6.67595 20.4585 10.0108 20.4585 15.3565C20.4585 20.7053 23.7653 24.6806 29.0789 24.6806C35.8462 24.6806 38.1112 19.867 38.1112 16.0433C38.1081 14.6048 37.7147 13.2684 37.0356 12.1176ZM29.082 20.5847C26.6326 20.5847 24.632 18.7254 24.632 15.5916C24.632 12.4579 26.6326 10.5244 29.082 10.5244C31.4976 10.5244 33.4983 12.4919 33.4983 15.5916C33.4983 18.6914 31.4976 20.5847 29.082 20.5847Z" fill="#57BF77"/>
<path d="M29.1343 32C29.0267 32 28.9222 31.9969 28.8147 31.9938C24.2048 31.8391 21.0732 28.297 20.9441 28.1454L23.6578 25.7448C23.6793 25.7695 25.932 28.2722 28.9652 28.3589C30.8491 28.4238 32.7423 27.505 34.5739 25.6613L37.1278 28.232C34.6446 30.7347 31.9586 32 29.1343 32Z" fill="#57BF77"/>
</g>
<defs>
<clipPath id="clip0">
<rect width="95" height="32" fill="white"/>
</clipPath>
</defs>
</svg>
