<svg width="82" height="57" viewBox="0 0 82 57" fill="none" xmlns="http://www.w3.org/2000/svg">
<g clip-path="url(#clip0)">
<path d="M31.0277 3.8914H39.7105V40.7029H31.1798L30.7368 35.3282C28.6603 39.6586 22.9402 41.7473 18.86 41.8271C8.01484 41.9003 0 35.1752 0 22.2573C0 9.56546 8.38516 2.92022 19.0782 2.9934C23.9784 2.9934 28.6537 5.30825 30.7302 8.96679L31.0277 3.8914ZM9.05306 22.2573C9.05306 29.275 13.8805 33.459 19.8916 33.459C34.1424 33.459 34.1424 11.1353 19.8916 11.1353C13.8805 11.1353 9.05306 15.2395 9.05306 22.2573Z" fill="black"/>
<path d="M79.6921 14.2483C79.0969 12.8714 78.2901 11.5543 77.199 10.3104L81.2791 5.08204L74.6067 0L70.9696 4.62971C68.4435 2.91353 65.4743 2.54102 62.5845 2.54102C52.3411 2.54102 44.0287 9.71175 44.0287 21.2062C44.0287 32.7073 51.1441 41.255 62.5779 41.255C77.1395 41.255 82.0132 30.9047 82.0132 22.6829C82 19.5965 81.1535 16.7228 79.6921 14.2483ZM62.5779 32.4545C57.3074 32.4545 53.0024 28.4568 53.0024 21.7184C53.0024 14.98 57.3074 10.8226 62.5779 10.8226C67.7756 10.8226 72.0806 15.0532 72.0806 21.7184C72.0806 28.3836 67.7756 32.4545 62.5779 32.4545Z" fill="#57BF77"/>
<path d="M62.6904 57C62.4589 57 62.2341 56.9933 62.0026 56.9867C52.0833 56.6541 45.3447 49.0377 45.067 48.7117L50.9062 43.5498C50.9525 43.6031 55.7997 48.9844 62.3267 49.1707C66.3804 49.3104 70.4539 47.3348 74.3952 43.3702L79.8905 48.898C74.5473 54.2793 68.7676 57 62.6904 57Z" fill="#57BF77"/>
</g>
<defs>
<clipPath id="clip0">
<rect width="82" height="57" fill="white"/>
</clipPath>
</defs>
</svg>
